<?xml version="1.0" encoding="UTF-8"?>
<svg width="100pt" height="100pt" version="1.1" viewBox="0 0 100 100" xmlns="http://www.w3.org/2000/svg">
 <path d="m93.031 32.18c0-3.8711-5.0508-6.4102-11.699-8.0586 0.80859-5.7383 0.94922-11.648-5.3906-13.961-7.0195-2.5508-10.621 3.3281-14.09 9.0195-0.42969 0.69922-0.87891 1.4297-1.3398 2.1602-5.6719-0.33984-9.9688-0.35156-10.512-0.35156-1.7617 0-43.031 0.12891-43.031 11.199v5.2695c0 5.9414 1.5586 11.859 4.4609 17.16-0.78125 1.9688-1.1797 4.1719-1.5312 6.1289-1.3086 7.4297 2 14.012 7.5508 14.98 0.44141 0.078126 0.89062 0.12109 1.3281 0.12109 2.3594 0 4.7383-1.0703 6.6914-3.0586 0.75-0.76172 1.4102-1.6406 1.9883-2.6016 2.8984 1.5195 6.0391 2.7188 9.3711 3.5781 0.60938 9.0703 5.1797 14.809 11.961 14.809 6.5898 0 11.129-5.5195 11.91-14.25 0.10938-0.019531 0.21875-0.050781 0.32812-0.078125 0.73047-0.14844 1.4492-0.32812 2.1602-0.51172 0.35156-0.089844 0.69922-0.17969 1.0508-0.28125 0.62109-0.17969 1.2305-0.37109 1.8398-0.57031 0.42188-0.14062 0.83984-0.28125 1.2617-0.42969 0.53125-0.19141 1.0508-0.39844 1.5703-0.60938 0.44922-0.19141 0.91016-0.37109 1.3516-0.57031 0.48828-0.21875 0.98047-0.46094 1.4609-0.69141 0.26953-0.12891 0.53906-0.25 0.80078-0.37891 2.4219 4.0391 6.2109 6.2109 10.02 5.5391 5.5391-0.98047 8.8516-7.5586 7.5391-14.98-0.39062-2.2188-0.76953-4.3516-1.4883-6.1914 2.8984-5.3203 4.4219-11.199 4.4219-17.09l-0.003906-5.3008zm-11.25-2.8203c0.17969 0.050781 0.35156 0.10156 0.51953 0.14844 0.12891 0.039063 0.25 0.070313 0.37109 0.10938 0.16016 0.050781 0.32812 0.10156 0.48047 0.14844 0.12109 0.039063 0.23047 0.070313 0.33984 0.10938 0.14844 0.050781 0.30078 0.10156 0.44922 0.14844 0.10938 0.039062 0.21094 0.070312 0.30859 0.10937 0.14062 0.050782 0.28125 0.10156 0.41016 0.14844 0.10156 0.039062 0.19141 0.070312 0.28906 0.10938 0.12891 0.050781 0.25 0.10156 0.37109 0.14844 0.089844 0.039063 0.17188 0.070313 0.26172 0.10938 0.10938 0.050781 0.21875 0.10156 0.32812 0.14844 0.078125 0.039063 0.16016 0.070313 0.23047 0.10938 0.10156 0.050781 0.19922 0.10156 0.28906 0.14062 0.070312 0.039063 0.14062 0.070313 0.19922 0.10938 0.089844 0.050781 0.17188 0.089844 0.25 0.14062 0.058594 0.039063 0.12109 0.070313 0.17969 0.10938 0.070312 0.050781 0.14062 0.089844 0.21094 0.14062 0.050781 0.039063 0.10156 0.070313 0.14844 0.10938 0.058593 0.039062 0.10938 0.089844 0.16016 0.12891 0.039063 0.039063 0.078125 0.070313 0.12109 0.10938 0.039062 0.039063 0.078125 0.078125 0.12109 0.12109 0.03125 0.03125 0.058594 0.070313 0.089844 0.10156 0.011719 0.019531 0.03125 0.039062 0.050782 0.050781v0.011719c-0.71094 0.98047-3.5312 2.2305-8.2383 3.3516 0.17188-0.96875 0.32031-1.9688 0.42969-3.0312 0.12109-1.1914 0.28125-2.3281 0.44922-3.4609 0.078126 0.019532 0.16016 0.039063 0.23828 0.058594 0.19141 0.050782 0.37891 0.10156 0.55859 0.14844 0.12109 0.042968 0.25 0.074218 0.38281 0.11328zm-9-14.801c0.44922 0 0.92188 0.10156 1.4414 0.28906 2.5391 0.92969 2.9219 2.8281 2.1797 8.3398-0.10156 0.73828-0.21875 1.5391-0.35938 2.4219l-0.050781 0.33984c-0.30078 1.9102-0.60938 3.8906-0.82813 6.0312-0.17187 1.6797-0.42969 3.2188-0.76172 4.6016-4.7305 0.78906-10.219 1.3281-16.059 1.6016-0.51172-3.2891 1.8711-7.5586 4.1406-10.762 0.23047-0.32812 0.44141-0.64844 0.66016-0.98047 0.28125-0.41016 0.57031-0.82031 0.82812-1.2305 0.76953-1.1797 1.4688-2.3398 2.1484-3.4414 0-0.011719 0.011718-0.019531 0.011718-0.019531 3.1875-5.2305 4.6875-7.1914 6.6484-7.1914zm-60.68 17.562c0.03125-0.03125 0.058594-0.070313 0.089844-0.10156 0.039063-0.039062 0.078125-0.078125 0.12109-0.12109 0.039062-0.039063 0.078125-0.070313 0.12109-0.10938 0.050781-0.039062 0.10156-0.078124 0.16016-0.12891 0.050781-0.039062 0.10156-0.070312 0.14844-0.10938 0.058593-0.039062 0.12891-0.089843 0.19922-0.12891 0.058594-0.039063 0.12109-0.070313 0.17969-0.10938 0.078125-0.050781 0.16016-0.089844 0.23828-0.14062 0.070313-0.039063 0.14062-0.070313 0.21094-0.10938 0.089844-0.050781 0.17969-0.089844 0.28125-0.14062 0.078126-0.039063 0.16016-0.078125 0.23828-0.10938 0.10156-0.050781 0.21094-0.10156 0.32031-0.14062 0.089844-0.039063 0.17969-0.078125 0.26953-0.10938 0.12109-0.050781 0.23828-0.10156 0.35937-0.14844 0.10156-0.039062 0.19141-0.078124 0.30078-0.10937 0.12891-0.050782 0.26172-0.10156 0.39844-0.14844 0.10938-0.039062 0.21094-0.078125 0.32812-0.12109 0.14062-0.050781 0.28906-0.10156 0.44141-0.14844 0.12109-0.039063 0.23047-0.078125 0.35156-0.10938 0.14844-0.050782 0.30859-0.10156 0.46875-0.14844 0.12891-0.039062 0.25-0.078125 0.37891-0.10938 0.17188-0.050781 0.33984-0.10156 0.51172-0.14844 0.12891-0.039063 0.26953-0.078125 0.41016-0.10938 0.17969-0.050781 0.37109-0.10156 0.55078-0.14844 0.14062-0.039062 0.28125-0.070312 0.42969-0.10938 0.19141-0.050781 0.39062-0.10156 0.58984-0.14062 0.14844-0.039062 0.30859-0.070312 0.46875-0.10938 0.19922-0.050781 0.39844-0.089844 0.60938-0.14062 0.17188-0.039062 0.32812-0.070312 0.5-0.10938 0.21094-0.050781 0.42969-0.089844 0.64844-0.14062 0.17188-0.039062 0.35156-0.070312 0.51953-0.10938 0.21875-0.039062 0.46094-0.089844 0.69141-0.12891 0.17969-0.03125 0.37109-0.070312 0.55078-0.10156 0.23047-0.039063 0.46875-0.078126 0.71875-0.12891 0.19922-0.03125 0.39062-0.070312 0.58984-0.10156 0.25-0.039063 0.5-0.078125 0.76172-0.12109 0.19922-0.03125 0.39844-0.058594 0.60156-0.10156 0.26172-0.039062 0.53125-0.078124 0.78906-0.12109 0.21094-0.03125 0.42187-0.058594 0.64062-0.089844 0.26953-0.039063 0.53906-0.070313 0.80859-0.10938 0.21875-0.03125 0.44141-0.058594 0.67188-0.089844 0.28125-0.039062 0.55859-0.070312 0.85156-0.10156 0.23047-0.03125 0.46094-0.058594 0.69922-0.078125 0.28906-0.03125 0.58984-0.058594 0.87891-0.10156 0.23828-0.03125 0.48047-0.050781 0.71875-0.078125 0.30078-0.03125 0.62109-0.058593 0.92969-0.089843 0.25-0.019532 0.48828-0.050782 0.73828-0.070313 0.32031-0.03125 0.64062-0.050781 0.96094-0.078125 0.25-0.019531 0.5-0.039062 0.76172-0.058594 0.32812-0.03125 0.66016-0.050781 0.98828-0.070312 0.26172-0.019532 0.51953-0.039063 0.78906-0.058594 0.33984-0.019531 0.69141-0.039062 1.0312-0.058594 0.26953-0.019531 0.53125-0.03125 0.80859-0.050781 0.33984-0.019531 0.69922-0.039063 1.0508-0.050781 0.28906-0.011719 0.57031-0.03125 0.85938-0.039063 0.35937-0.019531 0.71875-0.03125 1.0898-0.039062 0.28906-0.011719 0.57031-0.019531 0.85938-0.03125 0.39062-0.011719 0.80078-0.019531 1.1992-0.03125 0.26953-0.011719 0.53906-0.019531 0.80859-0.019531 0.42969-0.011719 0.87109-0.019532 1.3086-0.019532 0.25 0 0.5-0.011718 0.76172-0.011718 0.69922-0.011719 1.3984-0.011719 2.1211-0.011719 0.71875 0 1.4219 0 2.1211 0.011719 0.26172 0 0.5 0.011718 0.76172 0.011718 0.44141 0.011719 0.87891 0.011719 1.3086 0.019532 0.26953 0.011718 0.53906 0.011718 0.80859 0.019531 0.39844 0.011719 0.80078 0.019531 1.1992 0.03125 0.28906 0.011719 0.57031 0.019531 0.85938 0.03125 0.089843 0 0.17188 0.011719 0.26172 0.011719-3 4.6406-4.3398 8.7305-4 12.23-1.0781 0.019532-2.1914 0.03125-3.3203 0.03125-22.711 0-36.25-3.8789-37.941-6.1914v-0.011719c0.015625-0.046875 0.035156-0.066406 0.058593-0.085937zm9.8086 37.16c-0.67188 0.69141-2.0391 1.8008-3.5898 1.5195-2.6406-0.46875-4.2695-4.7617-3.4883-9.1914 0.089844-0.53906 0.19141-1.0312 0.28125-1.5 0.011719 0.011719 0.011719 0.019531 0.019531 0.03125 2.3086 2.8594 5.0312 5.3398 8.0703 7.4414-0.38281 0.63672-0.82422 1.207-1.293 1.6992zm61.738-16.133l-0.71875 1.2188 0.67187 1.25c0.76172 1.3984 1.1484 3.6289 1.5703 6 0.78125 4.4297-0.85156 8.7305-3.4883 9.1914-1.6484 0.28906-3.5391-1.0117-4.8711-3.2109 1.4492-1 2.8398-2.0781 4.1289-3.25 1.0195-0.92969 1.0898-2.5117 0.16016-3.5312-0.92969-1.0195-2.5117-1.0898-3.5312-0.16016-1.8203 1.6602-3.8398 3.1211-6.0195 4.3711-0.21875 0.12891-0.42969 0.26172-0.64844 0.37891-0.67188 0.37109-1.3516 0.71875-2.0508 1.0391-0.19141 0.089844-0.37891 0.17188-0.57031 0.25-0.55859 0.25-1.1211 0.48828-1.6992 0.71875-0.23828 0.10156-0.48828 0.19141-0.73828 0.28906-0.71094 0.26172-1.4219 0.51172-2.1484 0.73047-0.30859 0.089844-0.62109 0.17188-0.92969 0.26172-0.44922 0.12891-0.89062 0.25-1.3516 0.35938-0.42187 0.10156-0.83984 0.19922-1.2617 0.28906-0.35156 0.078125-0.71094 0.14062-1.0703 0.21094-0.37891 0.070312-0.76172 0.14844-1.1484 0.21094l-2.0586 0.32812-0.039062 2.0781c-0.039063 1.8984-0.55859 11.41-7.0195 11.41-6.6406 0-7.0195-9.8398-7.0312-11.82l-0.011718-2.0117-1.9688-0.42188c-13.27-2.8516-27.539-13.871-27.809-31.371 11.043 5.3438 36.625 5.4219 38.004 5.4219 0.35156 0 2.2305-0.011718 5.0312-0.10156l0.019531 0.039062 1.6016-0.058594c7.4414-0.26172 14.422-0.96094 20.199-2.0195l1.4883-0.28125 0.019531-0.058593c3.6797-0.73828 7.0703-1.6992 9.6602-2.9492-0.097656 5.2617-1.5977 10.5-4.3711 15.199z"/>
</svg>
