<?xml version="1.0" encoding="UTF-8"?>
<svg width="100pt" height="100pt" version="1.1" viewBox="0 0 100 100" xmlns="http://www.w3.org/2000/svg">
 <g>
  <path d="m61.156 9.5547c-1.625-0.44531-3.4688-0.10156-4.7969 1.2266l-32.141 32.062c-2.6602 2.6523-1.3633 7.3477 2.2695 8.2891h0.007813 0.03125c0.55078 0.17188 1.1523 0.023438 1.5625-0.38281l10.797-10.766c1.0508-1.0469 2.7031-0.60156 3.0781 0.84375l3.7109 14.391-0.003906-0.003906c0.14453 0.55078 0.57422 0.98047 1.125 1.125l22.984 5.9102c1.7539 0.45312 3.625-0.089844 4.8594-1.418 1.1484-1.2305 1.5859-2.9727 1.1641-4.6016l-11.141-43.176c-0.46875-1.8203-1.8828-3.0586-3.5078-3.5039zm13.484 51.281c0.26953-0.28906 0.41797-0.66797 0.42188-1.0625zm-14.281-48.359c0.58984 0.16406 1.0938 0.64063 1.2812 1.3594l11.141 43.176c0.15625 0.60156-0.003906 1.2305-0.42578 1.6836l-0.003907 0.003907c-0.003906 0.011719-0.007812 0.023437-0.011718 0.03125-0.45312 0.48047-1.125 0.67969-1.7773 0.51172l-22.094-5.6758-3.4844-13.5c-0.9375-3.6406-5.6406-4.9336-8.3008-2.2773l-9.8984 9.875c-0.88281-0.62891-1.2227-1.7422-0.35938-2.6016l32.148-32.062c0.52344-0.52344 1.1992-0.67578 1.7891-0.51172zm-33.086 35.625l0.078124 0.03125v0.003907c-0.027343-0.011719-0.050781-0.023438-0.074218-0.03125h-0.007813z" fill-rule="evenodd"/>
  <path d="m41.473 36.551c-1.625-0.44531-3.4688-0.10547-4.7969 1.2188l-32.141 32.062c-2.6602 2.6523-1.3594 7.3594 2.2812 8.293l43.285 11.113c3.5742 0.91797 6.9414-2.4375 6.0195-6.0117l-11.141-43.176c-0.46875-1.8203-1.8828-3.0586-3.5078-3.5039zm-0.80078 2.9219c0.58984 0.16406 1.0938 0.64062 1.2812 1.3594l11.145 43.176c0.36328 1.4102-0.80078 2.5664-2.2227 2.2031l-43.281-11.113c-1.4531-0.375-1.9062-2.0039-0.85547-3.0508l32.141-32.062c0.52344-0.52344 1.1992-0.67578 1.7891-0.51172z" fill-rule="evenodd"/>
  <path d="m82.066 37.777c-1.625-0.44531-3.4688-0.10547-4.7969 1.2188l-6.6328 6.6172c-0.39453 0.39453-0.55078 0.96484-0.41016 1.5039l2.5508 9.8984c0.36719 1.4141-0.79297 2.5781-2.2148 2.2109l-9.9297-2.5508v-0.003906c-0.53516-0.13281-1.1016 0.019531-1.4883 0.41016l-9.6992 9.668c-0.39453 0.39453-0.55078 0.96484-0.41016 1.5l2.9531 11.449v0.003906c0.14453 0.55078 0.57422 0.98047 1.125 1.1211l37.578 9.6445c1.7539 0.45312 3.625-0.089844 4.8594-1.4141 1.1484-1.2305 1.5859-2.9688 1.1641-4.5977l-11.141-43.184c-0.46875-1.8203-1.8828-3.0508-3.5078-3.4961zm-0.80078 2.9219c0.58984 0.16406 1.0938 0.63281 1.2812 1.3555l11.141 43.176c0.15625 0.60156-0.003906 1.2305-0.42578 1.6836-0.45312 0.48828-1.1406 0.6875-1.793 0.51953l-36.684-9.418-2.5039-9.6914 8.4336-8.4102 9.0625 2.332c3.5781 0.92188 6.9492-2.4414 6.0234-6.0195l-2.332-9.0391 6-5.9883c0.52344-0.52344 1.2031-0.66797 1.793-0.50781z" fill-rule="evenodd"/>
  <path d="m38.984 57.82c-0.14062 0.003907-0.28125 0.027344-0.41797 0.070313l-15.582 4.6758c-0.82422 0.24609-1.293 1.1211-1.0469 1.9492 0.25 0.82812 1.125 1.2969 1.9531 1.0469l15.582-4.6758c0.75781-0.21875 1.2383-0.96875 1.1133-1.75-0.125-0.77734-0.8125-1.3438-1.6016-1.3125z" fill-rule="evenodd"/>
  <path d="m40.547 65.633c-0.14062 0.003907-0.28125 0.027344-0.41797 0.070313l-15.582 4.6758c-0.82422 0.24609-1.293 1.1211-1.0469 1.9492 0.25 0.82812 1.125 1.2969 1.9531 1.0469l15.582-4.6758c0.75781-0.21875 1.2383-0.96875 1.1133-1.75-0.125-0.77734-0.8125-1.3438-1.6016-1.3125z" fill-rule="evenodd"/>
  <path d="m60.938 39.059c-2.5703 0-4.6875 2.1172-4.6875 4.6875 0 2.5703 2.1172 4.6875 4.6875 4.6875s4.6875-2.1172 4.6875-4.6875c0-2.5703-2.1172-4.6875-4.6875-4.6875zm0 3.125c0.88281 0 1.5625 0.67969 1.5625 1.5625 0 0.88281-0.67969 1.5625-1.5625 1.5625s-1.5625-0.67969-1.5625-1.5625c0-0.88281 0.67969-1.5625 1.5625-1.5625z"/>
  <path d="m53.172 29.684c-2.5703 0-4.6875 2.1172-4.6875 4.6875 0 2.5703 2.1172 4.6875 4.6875 4.6875s4.6875-2.1172 4.6875-4.6875c0-2.5703-2.1172-4.6875-4.6875-4.6875zm0 3.125c0.88281 0 1.5625 0.67969 1.5625 1.5625 0 0.88281-0.67969 1.5625-1.5625 1.5625s-1.5625-0.67969-1.5625-1.5625c0-0.88281 0.67969-1.5625 1.5625-1.5625z"/>
  <path d="m70.07 76.754c-0.93359-0.27344-1.9531-0.25781-2.9102 0.085938-1.9141 0.69141-3.168 2.5625-3.0898 4.5977v-0.003906c-0.003906 0.42969 0.16406 0.83984 0.47266 1.1367 0.30859 0.29688 0.72266 0.45703 1.1523 0.44141 0.42578-0.019531 0.82813-0.21094 1.1094-0.53125 0.28516-0.32422 0.42187-0.74609 0.38281-1.1719-0.027344-0.6875 0.38672-1.293 1.0312-1.5273s1.3516-0.03125 1.7695 0.51953c0.41797 0.54688 0.4375 1.2812 0.042969 1.8438-0.26562 0.33594-0.37891 0.76953-0.31641 1.1953 0.066406 0.42188 0.30078 0.80469 0.65234 1.0508 0.35156 0.24609 0.78906 0.33594 1.207 0.25 0.42188-0.085937 0.78906-0.34375 1.0156-0.70703 1.168-1.668 1.1211-3.9141-0.11719-5.5312-0.61719-0.80859-1.4727-1.375-2.4062-1.6484z"/>
  <path d="m88.859 62.703c-0.96484-0.29297-2.0234-0.27344-3.0156 0.097656-1.9805 0.74609-3.2227 2.7461-3.0078 4.8516 0.21094 2.1055 1.8281 3.8242 3.918 4.1641 2.0898 0.33594 4.1602-0.78906 5.0234-2.7227 0.21484-0.46094 0.1875-0.99219-0.0625-1.4336-0.25391-0.4375-0.70312-0.72656-1.207-0.77734 0.48828-0.14453 0.87109-0.51953 1.0312-1 0.16016-0.48437 0.078126-1.0117-0.22266-1.4219-0.61328-0.85938-1.4883-1.4648-2.4531-1.7578zm-1.9102 3.0195c0.66797-0.25391 1.4023-0.03125 1.8203 0.55469v0.003906c0.26562 0.37891 0.69141 0.62109 1.1523 0.66016-0.44531 0.12891-0.8125 0.45312-0.99219 0.88281-0.29297 0.65234-0.97266 1.0156-1.6797 0.90234-0.70703-0.11328-1.2344-0.67187-1.3047-1.3867-0.070312-0.71094 0.33594-1.3633 1.0078-1.6172z"/>
 </g>
</svg>
