<?xml version="1.0" encoding="UTF-8"?>
<svg width="100pt" height="100pt" version="1.1" viewBox="0 0 100 100" xmlns="http://www.w3.org/2000/svg">
 <g>
  <path d="m80.898 30.102c-10-8.9023-24.598-10.102-36.5-3.1016-2.8984-0.80078-6.1992 0-8.3984 2.1992-1.5 1.5-2.3008 3.3008-2.5 5.3984-0.69922 0.30078-1.3008 0.69922-1.8008 1.1992-1.8008 0-3.6016 0.80078-4.8984 2.1016-1.3008 1.3008-2 3-2.1016 4.8008-0.89844 0.39844-1.6992 1-2.3984 1.6992-0.89844 0.89844-1.5 1.8984-2 3-0.89844 0.30078-1.8008 0.69922-2.5 1.3984-1.6016 1.6016-2.1016 4-1.1992 6-0.10156 0.10156-0.10156 0.10156-0.19922 0.19922-3.3984 3.3984-3.3984 8.8984 0 12.301 0.60156 0.60156 1.3984 1.1992 2.1992 1.6016 0.80078 5.8984 3.1992 11.5 7.3008 16.199 1.3984 1.6016 3.3984 2.5 5.5 2.6016h0.19922c2.1016 0 4-0.80078 5.3984-2.3008l42.5-42.5 1.3008-1.3008c0.10156-0.10156 0.10156-0.10156 0.19922-0.19922l0.10156-0.10156c1.5-1.5 2.3008-3.5 2.3008-5.6992 0.097656-2.0977-0.90234-4.0977-2.5039-5.4961zm-1.2969 1.5c1.1992 1.1016 1.8984 2.5 1.8984 4.1016v0.39844c-0.30078-1.1992-0.89844-2.3008-1.8008-3.1992-2.1016-2.1016-5.3008-2.6016-8-1.3984-0.10156-0.10156-0.19922-0.30078-0.39844-0.39844-1.8008-1.8008-4.6016-2.3984-7-1.6016-0.19922-0.30078-0.5-0.5-0.80078-0.69922-2.6016-2.1016-6.1992-2.3984-9-0.69922-2.1016-1.6016-5.1992-1.5-7.1992 0.30078-0.19922-0.19922-0.39844-0.30078-0.69922-0.5 11-5.707 24-4.3047 33 3.6953zm-51.402 7.5977c1-1 2.3984-1.6016 3.8984-1.5 0.30078 0 0.60156-0.10156 0.80078-0.30078 0-0.10156 0.10156-0.10156 0.19922-0.19922 0.39844-0.39844 1-0.69922 1.6016-0.89844 0.39844-0.10156 0.69922-0.5 0.69922-1 0-1.8008 0.69922-3.3984 2-4.6992 2.6016-2.6016 6.8008-2.6016 9.3984-0.10156 0.19922 0.19922 0.5 0.30078 0.80078 0.19922 0.30078 0 0.60156-0.19922 0.69922-0.39844 0.10156-0.10156 0.19922-0.19922 0.30078-0.30078 1.3984-1.3984 3.6992-1.3984 5.1016 0l0.10156 0.10156c0.30078 0.39844 0.89844 0.39844 1.3008 0.10156 2.1992-1.6016 5.1992-1.5 7.1992 0.19922 0.30078 0.30078 0.69922 0.60156 0.89844 1 0.30078 0.39844 0.80078 0.5 1.1992 0.30078 1.8008-0.89844 4-0.5 5.3984 0.89844 0.19922 0.19922 0.5 0.5 0.60156 0.80078 0.10156 0.19922 0.39844 0.39844 0.60156 0.39844 0.30078 0.10156 0.5 0 0.80078-0.10156 2-1.3008 4.6016-1 6.3008 0.69922 1.6992 1.6992 1.8984 4.3984 0.60156 6.3984-1 0.69922-2.1992 1.1016-3.3984 1.1016-1.6016 0-3.1992-0.60156-4.3008-1.8008-11.105-11.297-30.805-10.398-43.004 1.8008-0.39844 0.39844-0.80078 0.80078-1.1992 1.3008-0.19922-1.5 0.39844-3 1.3984-4zm-10.301 26.699c-2.6016-2.6016-2.6016-6.8984 0-9.5 0.19922-0.19922 0.39844-0.39844 0.60156-0.60156 0.39844-0.30078 0.5-0.89844 0.19922-1.3008-0.80078-1.3984-0.60156-3.1992 0.5-4.3984 0.5-0.5 1.1992-0.89844 2-1 0.39844-0.10156 0.69922-0.30078 0.80078-0.69922 0.30078-1.1016 0.89844-2 1.6992-2.8008 0.60156-0.60156 1.3008-1 2-1.3984-5.1992 6.3984-7.6992 14.301-7.3008 22-0.19922 0-0.29688-0.19922-0.5-0.30078zm17.902 18.102c-1.1016 1.1016-2.6016 1.6992-4.1992 1.6992-0.30078 0-0.5 0-0.80078-0.10156l11-11c0.39844-0.39844 0.39844-1 0-1.3984-0.39844-0.39844-1-0.39844-1.3984 0l-11.703 11.602c-0.5-0.30078-0.89844-0.60156-1.3008-1.1016-0.19922-0.19922-0.30078-0.39844-0.5-0.60156l10.199-10.199c0.39844-0.39844 0.39844-1 0-1.3984-0.39844-0.39844-1-0.39844-1.3984 0l-10 10c-0.5-0.69922-0.89844-1.3984-1.3008-2.1016l8.3008-8.3008c0.39844-0.39844 0.39844-1 0-1.3984-0.39844-0.39844-1-0.39844-1.3984 0l-7.8984 7.8984c-0.39844-0.80078-0.69922-1.6016-1-2.3984l6.5-6.5c0.39844-0.39844 0.39844-1 0-1.3984-0.39844-0.39844-1-0.39844-1.3984 0l-5.8008 5.8008c-0.30078-0.89844-0.5-1.8008-0.69922-2.6992l5.5-5.5c0.39844-0.39844 0.39844-1 0-1.3984-0.39844-0.39844-1-0.39844-1.3984 0l-4.5039 4.4961c-0.10156-1.1016-0.19922-2.1016-0.19922-3.1992l4.3984-4.3984c0.39844-0.39844 0.39844-1 0-1.3984-0.39844-0.39844-1-0.39844-1.3984 0l-2.8008 2.8008c0.10156-1.3984 0.39844-2.8008 0.69922-4.1992 0 0 0.10156 0 0.10156-0.10156l3.1016-3.1016c0.39844-0.39844 0.39844-1 0-1.3984-0.39844-0.39844-1-0.39844-1.3984 0l-0.39844 0.39844c1.5-3.6992 3.6992-7.1992 6.6992-10.199 11.395-11.305 29.895-12.203 40.293-1.8047 1.5 1.5 3.6016 2.3984 5.6992 2.3984h0.5z"/>
  <path d="m95.801 37.602l0.5-0.5c0.39844-0.39844 0.39844-1 0-1.3984-0.39844-0.39844-1-0.39844-1.3984 0l-0.5 0.5-0.5-0.5c-0.39844-0.39844-1-0.39844-1.3984 0-0.39844 0.39844-0.39844 1 0 1.3984l0.5 0.5-0.5 0.5c-0.39844 0.39844-0.39844 1 0 1.3984 0.19922 0.19922 0.5 0.30078 0.69922 0.30078s0.5-0.10156 0.69922-0.30078l0.5-0.5 0.5 0.5c0.19922 0.19922 0.5 0.30078 0.69922 0.30078 0.19922 0 0.5-0.10156 0.69922-0.30078 0.39844-0.39844 0.39844-1 0-1.3984z"/>
  <path d="m24.102 19.301c0.19922 0.19922 0.5 0.30078 0.69922 0.30078s0.5-0.10156 0.69922-0.30078l0.5-0.5 0.5 0.5c0.19922 0.19922 0.5 0.30078 0.69922 0.30078s0.5-0.10156 0.69922-0.30078c0.39844-0.39844 0.39844-1 0-1.3984l-0.5-0.5 0.5-0.5c0.39844-0.39844 0.39844-1 0-1.3984-0.39844-0.39844-1-0.39844-1.3984 0l-0.5 0.49609-0.5-0.5c-0.39844-0.39844-1-0.39844-1.3984 0-0.39844 0.39844-0.39844 1 0 1.3984l0.5 0.5-0.5 0.5c-0.40234 0.40234-0.40234 1.1016 0 1.4023z"/>
  <path d="m76.801 69.102h-0.69922v-0.69922c0-0.60156-0.39844-1-1-1-0.60156 0-1 0.39844-1 1v0.69922h-0.69922c-0.60156 0-1 0.39844-1 1 0 0.60156 0.39844 1 1 1h0.69922v0.69922c0 0.60156 0.39844 1 1 1 0.60156 0 1-0.39844 1-1v-0.69922h0.69922c0.60156 0 1-0.39844 1-1 0-0.60156-0.40234-1-1-1z"/>
  <path d="m11.199 76.602c-0.39844-0.39844-1-0.39844-1.3984 0l-0.30078 0.30078-0.30078-0.30078c-0.39844-0.39844-1-0.39844-1.3984 0-0.39844 0.39844-0.39844 1 0 1.3984l0.30078 0.30078-0.30078 0.30078c-0.39844 0.39844-0.39844 1 0 1.3984 0.19922 0.19922 0.5 0.30078 0.69922 0.30078s0.5-0.10156 0.69922-0.30078l0.30078-0.30078 0.30078 0.30078c0.19922 0.19922 0.5 0.30078 0.69922 0.30078s0.5-0.10156 0.69922-0.30078c0.39844-0.39844 0.39844-1 0-1.3984l-0.30078-0.30078 0.30078-0.30078c0.40234-0.39844 0.40234-1 0-1.3984z"/>
  <path d="m75 13.602c0.19922 0.19922 0.5 0.30078 0.69922 0.30078s0.5-0.10156 0.69922-0.30078l0.30078-0.30078 0.30078 0.30078c0.19922 0.19922 0.5 0.30078 0.69922 0.30078s0.5-0.10156 0.69922-0.30078c0.39844-0.39844 0.39844-1 0-1.3984l-0.30078-0.30078 0.30078-0.30078c0.39844-0.39844 0.39844-1 0-1.3984-0.39844-0.39844-1-0.39844-1.3984 0l-0.30078 0.30078-0.30078-0.30078c-0.39844-0.39844-1-0.39844-1.3984 0s-0.39844 1 0 1.3984l0.30078 0.30078-0.30078 0.29688c-0.39844 0.40234-0.39844 1 0 1.4023z"/>
  <path d="m61.199 79.699c-1.8008 0-3.3008 1.5-3.3008 3.3008s1.5 3.3008 3.3008 3.3008 3.3008-1.5 3.3008-3.3008-1.5-3.3008-3.3008-3.3008zm0 4.6992c-0.69922 0-1.3008-0.60156-1.3008-1.3008 0-0.69922 0.60156-1.3008 1.3008-1.3008s1.3008 0.60156 1.3008 1.3008c0 0.70312-0.60156 1.3008-1.3008 1.3008z"/>
  <path d="m85.5 79.102c-1.3984 0-2.5 1.1016-2.5 2.5 0 1.3984 1.1016 2.5 2.5 2.5s2.5-1.1016 2.5-2.5c0-1.4023-1.1992-2.5-2.5-2.5zm0 3c-0.30078 0-0.5-0.19922-0.5-0.5 0-0.30078 0.19922-0.5 0.5-0.5s0.5 0.19922 0.5 0.5c0 0.29688-0.30078 0.5-0.5 0.5z"/>
  <path d="m15.699 34.5c0-1.6016-1.3008-3-3-3s-3 1.3008-3 3 1.3008 3 3 3 3-1.3984 3-3zm-3 1c-0.5 0-1-0.39844-1-1 0-0.5 0.39844-1 1-1 0.60156 0 1 0.39844 1 1 0 0.5-0.5 1-1 1z"/>
  <path d="m12.812 16.219c1.5898 0.17578 1.3281 2.5625-0.26562 2.3867-1.5898-0.17578-1.3242-2.5625 0.26562-2.3867"/>
  <path d="m73.273 86.137c1.5898 0.17578 1.3242 2.5586-0.26563 2.3828-1.5898-0.17578-1.3242-2.5625 0.26563-2.3828"/>
  <path d="m71.445 58.219c0.80078 1.3867-1.2773 2.5859-2.0781 1.1992-0.80078-1.3828 1.2773-2.582 2.0781-1.1992"/>
  <path d="m92.297 64.711c1.5898 0.17578 1.3242 2.5625-0.26562 2.3867-1.5898-0.17578-1.3242-2.5625 0.26562-2.3867"/>
  <path d="m43.148 94.02c1.5898 0.17578 1.3281 2.5586-0.26172 2.3828-1.5938-0.17578-1.3281-2.5586 0.26172-2.3828"/>
  <path d="m24.41 28.527c1.5898 0.17578 1.3242 2.5625-0.26562 2.3867-1.5898-0.17578-1.3242-2.5625 0.26562-2.3867"/>
  <path d="m47.406 82.109c1.3242 0.89844-0.027344 2.8828-1.3516 1.9805-1.3203-0.89844 0.027343-2.8828 1.3516-1.9805"/>
  <path d="m7.9727 64.934c1.3203 0.90234-0.03125 2.8867-1.3516 1.9844-1.3242-0.89844 0.027344-2.8828 1.3516-1.9844"/>
  <path d="m24.199 91.801c0 1.5977-2.3984 1.5977-2.3984 0 0-1.6016 2.3984-1.6016 2.3984 0"/>
  <path d="m62.398 16.199c0 1.6016-2.3984 1.6016-2.3984 0 0-1.5977 2.3984-1.5977 2.3984 0"/>
  <path d="m46.699 13.199c0 1.6016-2.3984 1.6016-2.3984 0 0-1.5977 2.3984-1.5977 2.3984 0"/>
  <path d="m37.5 5.3984c0 1.6016-2.3984 1.6016-2.3984 0 0-1.5977 2.3984-1.5977 2.3984 0"/>
  <path d="m89.301 22.301c0 1.5977-2.4023 1.5977-2.4023 0 0-1.6016 2.4023-1.6016 2.4023 0"/>
  <path d="m86.102 56.602c0.5 0 0.89844-0.30078 1-0.80078 0.10156-0.5-0.30078-1.1016-0.80078-1.1992l-3.3984-0.60156c-0.5-0.10156-1.1016 0.30078-1.1992 0.80078-0.10156 0.5 0.30078 1.1016 0.80078 1.1992l3.3984 0.60156h0.19922z"/>
  <path d="m55.199 8.1016h0.19922c0.5 0 0.89844-0.30078 1-0.80078l0.60156-3.3984c0.10156-0.5-0.30078-1.1016-0.80078-1.1992-0.59766-0.003906-1.0977 0.29688-1.1992 0.89844l-0.60156 3.3984c-0.097657 0.5 0.20312 1 0.80078 1.1016z"/>
  <path d="m7.5 48.398c-0.30078-0.39844-0.89844-0.60156-1.3984-0.19922l-2.8008 2c-0.39844 0.30078-0.60156 0.89844-0.19922 1.3984 0.19922 0.20312 0.5 0.40234 0.79688 0.40234 0.19922 0 0.39844-0.10156 0.60156-0.19922l2.8008-2c0.39844-0.30078 0.5-0.90234 0.19922-1.4023z"/>
  <path d="m61.301 73.602h0.19922c0.5-0.10156 0.89844-0.60156 0.80078-1.1016l-0.30078-1.6992c-0.10156-0.5-0.60156-0.89844-1.1016-0.80078-0.5 0.10156-0.89844 0.60156-0.80078 1.1016l0.30078 1.6992c0 0.5 0.5 0.80078 0.90234 0.80078z"/>
 </g>
</svg>
